<svg width="119" height="51" viewBox="0 0 119 51" fill="none" xmlns="http://www.w3.org/2000/svg">
<path d="M15.1621 9.33848C11.1168 10.4218 7.97504 13.4843 6.68137 17.651C5.83946 20.3593 6.20908 23.9635 7.60542 26.8176C8.09824 27.8176 24.7516 44.8385 25.2445 44.8385C25.573 44.8385 37.4214 32.8177 40.8712 28.9843C42.8425 26.7968 43.5406 25.526 44.0129 23.2343C44.3825 21.4426 44.3825 20.3176 44.0129 18.5468C43.5817 16.4218 42.6166 14.5885 41.1176 12.9635C38.7561 10.4218 36.3741 9.25515 33.1297 9.06765C30.8093 8.94265 29.0844 9.31765 26.8872 10.4635L25.2855 11.2968L23.5607 10.401C22.6161 9.92181 21.3429 9.40098 20.7474 9.25515C19.2895 8.92181 16.579 8.96348 15.1621 9.33848ZM26.3739 19.401C25.7578 23.5676 25.5936 23.3801 29.4335 23.3801H32.2056L32.6163 24.0468C32.8422 24.4218 33.027 24.8801 33.027 25.0885C33.027 25.276 32.4521 26.1093 31.7744 26.9635C29.4335 29.7968 23.8892 36.0885 23.7455 36.0885C23.5196 36.0885 23.5196 36.0052 24.0945 32.4218C24.7106 28.6093 24.69 28.7135 24.2794 28.2968C24.0329 28.026 23.4374 27.9635 21.3019 27.9635C18.7351 27.9635 18.6119 27.9426 18.1396 27.4426C17.5441 26.8593 17.503 26.3801 17.9753 25.6718C18.3654 25.0885 23.3348 19.1093 25.4087 16.7343C27.072 14.8385 27.072 14.8593 26.3739 19.401Z" fill="#E64997"/>
<path d="M53.8452 32.7551L59.9252 18.5551H62.8052L68.8852 32.7551H65.5652L64.3052 29.7551H58.4252L57.1652 32.7551H53.8452ZM61.3652 22.7351L59.5652 26.9951H63.1452L61.3652 22.7351ZM82.6252 32.7551V27.5751C82.6252 26.0417 82.1452 25.2751 81.1852 25.2751C80.0386 25.2751 79.4386 26.1084 79.3852 27.7751V32.7551H76.3652V27.5751C76.3652 26.0417 75.8852 25.2751 74.9252 25.2751C74.3652 25.2751 73.9252 25.4951 73.6052 25.9351C73.2852 26.3617 73.1252 27.0151 73.1252 27.8951V32.7551H70.1052V22.7551H73.1252V23.7751C73.7652 22.9484 74.6186 22.5351 75.6852 22.5351C77.0852 22.5351 78.1119 23.1217 78.7652 24.2951C79.0586 23.7217 79.4986 23.2884 80.0852 22.9951C80.6719 22.6884 81.2586 22.5351 81.8452 22.5351C83.0586 22.5351 83.9919 22.9351 84.6452 23.7351C85.3119 24.5351 85.6452 25.6417 85.6452 27.0551V32.7551H82.6252ZM96.3559 31.4751C95.3292 32.4751 94.0892 32.9751 92.6359 32.9751C91.1825 32.9751 89.9425 32.4751 88.9159 31.4751C87.8892 30.4617 87.3759 29.2217 87.3759 27.7551C87.3759 26.2884 87.8892 25.0551 88.9159 24.0551C89.9425 23.0417 91.1825 22.5351 92.6359 22.5351C94.0892 22.5351 95.3292 23.0417 96.3559 24.0551C97.3825 25.0551 97.8959 26.2884 97.8959 27.7551C97.8959 29.2217 97.3825 30.4617 96.3559 31.4751ZM91.0359 29.4951C91.4625 29.9351 91.9959 30.1551 92.6359 30.1551C93.2759 30.1551 93.8025 29.9351 94.2159 29.4951C94.6425 29.0551 94.8559 28.4751 94.8559 27.7551C94.8559 27.0351 94.6425 26.4551 94.2159 26.0151C93.8025 25.5751 93.2759 25.3551 92.6359 25.3551C91.9959 25.3551 91.4625 25.5751 91.0359 26.0151C90.6225 26.4551 90.4159 27.0351 90.4159 27.7551C90.4159 28.4751 90.6225 29.0551 91.0359 29.4951ZM99.7537 32.7551V22.7551H102.774V24.2551C102.934 23.8017 103.234 23.4217 103.674 23.1151C104.114 22.7951 104.607 22.6351 105.154 22.6351C105.5 22.6351 105.827 22.6751 106.134 22.7551V25.8151C105.667 25.6551 105.22 25.5751 104.794 25.5751C104.154 25.5751 103.654 25.8017 103.294 26.2551C102.947 26.6951 102.774 27.2817 102.774 28.0151V32.7551H99.7537ZM112.169 32.9751C110.622 32.9751 109.349 32.4817 108.349 31.4951C107.362 30.5084 106.869 29.2551 106.869 27.7351C106.869 26.2417 107.369 25.0017 108.369 24.0151C109.382 23.0284 110.649 22.5351 112.169 22.5351C112.902 22.5351 113.589 22.6617 114.229 22.9151C114.882 23.1684 115.455 23.5351 115.949 24.0151C116.455 24.4951 116.849 25.1151 117.129 25.8751C117.409 26.6351 117.535 27.4951 117.509 28.4551H109.809C109.862 29.0017 110.102 29.4617 110.529 29.8351C110.955 30.1951 111.555 30.3751 112.329 30.3751C112.769 30.3751 113.169 30.2884 113.529 30.1151C113.889 29.9284 114.129 29.7017 114.249 29.4351H117.409C117.089 30.4884 116.449 31.3417 115.489 31.9951C114.529 32.6484 113.422 32.9751 112.169 32.9751ZM112.089 24.9351C111.515 24.9351 111.035 25.0817 110.649 25.3751C110.275 25.6684 110.022 26.0551 109.889 26.5351H114.169C114.022 25.9884 113.749 25.5884 113.349 25.3351C112.962 25.0684 112.542 24.9351 112.089 24.9351Z" fill="#E64997"/>
</svg>
