<svg width="20" height="25" viewBox="0 0 20 25" fill="none" xmlns="http://www.w3.org/2000/svg">
<path d="M19.1388 8.40626C19.0248 8.47653 16.5175 9.93631 16.546 12.9732C16.5775 16.6056 19.7303 17.8152 19.7665 17.829C19.7382 17.9154 19.2624 19.5518 18.1046 21.2418C17.104 22.7059 16.0674 24.1617 14.4314 24.1921C12.8242 24.2215 12.3062 23.2384 10.47 23.2384C8.63281 23.2384 8.05775 24.1617 6.53783 24.2215C4.95877 24.2812 3.75657 22.6405 2.74857 21.1845C0.687932 18.2047 -0.887582 12.7634 1.22797 9.09132C2.27824 7.26764 4.15549 6.11227 6.19235 6.08243C7.74357 6.05311 9.2065 7.12525 10.1553 7.12525C11.0906 7.12525 12.7669 5.87544 14.7428 6.02161C15.5172 6.079 17.7155 6.31013 19.1388 8.40626ZM13.5236 4.05455C14.3628 3.04036 14.9274 1.62793 14.7719 0.223083C13.5641 0.27098 12.1034 1.02759 11.2371 2.04113C10.4613 2.93898 9.78004 4.37697 9.96502 5.75314C11.3112 5.85716 12.6852 5.06937 13.5236 4.05455Z" fill="white"/>
</svg>
