<svg width="73" height="25" viewBox="0 0 73 25" fill="none" xmlns="http://www.w3.org/2000/svg">
<path d="M59.8919 11.6847L49.957 22.229C49.9579 22.2309 49.9579 22.2337 49.9588 22.2355C50.264 23.3805 51.3091 24.2231 52.5501 24.2231C53.0465 24.2231 53.5122 24.0887 53.9116 23.8536L53.9433 23.8349L65.1258 17.3823L59.8919 11.6847Z" fill="#EA4335"/>
<path d="M69.9425 9.8892L69.9332 9.88267L65.1052 7.08423L59.666 11.9243L65.1248 17.3813L69.9266 14.6108C70.7683 14.1554 71.3403 13.268 71.3403 12.2453C71.3403 11.2282 70.7767 10.3455 69.9425 9.8892Z" fill="#FBBC04"/>
<path d="M49.9567 2.21626C49.897 2.43647 49.8653 2.66789 49.8653 2.90677V21.5394C49.8653 21.7783 49.897 22.0097 49.9577 22.229L60.2332 11.9543L49.9567 2.21626Z" fill="#4285F4"/>
<path d="M59.9652 12.2231L65.1067 7.08249L53.9373 0.606605C53.5313 0.363059 53.0573 0.223091 52.5506 0.223091C51.3096 0.223091 50.2626 1.06757 49.9575 2.21344L49.9565 2.21624L59.9652 12.2231Z" fill="#34A853"/>
<path d="M21.1388 8.40626C21.0248 8.47653 18.5175 9.93631 18.546 12.9732C18.5775 16.6056 21.7303 17.8152 21.7665 17.829C21.7382 17.9154 21.2624 19.5518 20.1046 21.2418C19.104 22.7059 18.0674 24.1617 16.4314 24.1921C14.8242 24.2215 14.3062 23.2384 12.47 23.2384C10.6328 23.2384 10.0578 24.1617 8.53783 24.2215C6.95877 24.2812 5.75657 22.6405 4.74857 21.1845C2.68793 18.2047 1.11242 12.7634 3.22797 9.09132C4.27824 7.26764 6.15549 6.11227 8.19235 6.08243C9.74357 6.05311 11.2065 7.12525 12.1553 7.12525C13.0906 7.12525 14.7669 5.87544 16.7428 6.02161C17.5172 6.079 19.7155 6.31013 21.1388 8.40626ZM15.5236 4.05455C16.3628 3.04036 16.9274 1.62793 16.7719 0.223083C15.5641 0.27098 14.1034 1.02759 13.2371 2.04113C12.4613 2.93898 11.78 4.37697 11.965 5.75314C13.3112 5.85716 14.6852 5.06937 15.5236 4.05455Z" fill="white"/>
</svg>
