<svg width="23" height="25" viewBox="0 0 23 25" fill="none" xmlns="http://www.w3.org/2000/svg">
<path d="M10.8919 11.6847L0.95697 22.229C0.957903 22.2309 0.957903 22.2337 0.958836 22.2355C1.26397 23.3805 2.30907 24.2231 3.55012 24.2231C4.04655 24.2231 4.51217 24.0887 4.91155 23.8536L4.94328 23.8349L16.1258 17.3823L10.8919 11.6847Z" fill="#EA4335"/>
<path d="M20.9425 9.8892L20.9332 9.88267L16.1052 7.08423L10.666 11.9243L16.1248 17.3813L20.9266 14.6108C21.7683 14.1554 22.3403 13.268 22.3403 12.2453C22.3403 11.2282 21.7767 10.3455 20.9425 9.8892Z" fill="#FBBC04"/>
<path d="M0.956742 2.21626C0.897022 2.43647 0.865295 2.66789 0.865295 2.90677V21.5394C0.865295 21.7783 0.897022 22.0097 0.957675 22.229L11.2332 11.9543L0.956742 2.21626Z" fill="#4285F4"/>
<path d="M10.9652 12.2231L16.1067 7.08249L4.93725 0.606605C4.53134 0.363059 4.05731 0.223091 3.55063 0.223091C2.30957 0.223091 1.26261 1.06757 0.957476 2.21344L0.956543 2.21624L10.9652 12.2231Z" fill="#34A853"/>
</svg>
